<svg viewBox="0 0 720 400" xmlns="http://www.w3.org/2000/svg" role="img" aria-labelledby="t-energy d-energy" style="width:100%;height:auto;display:block;overflow:visible">
<title id="t-energy">Energy per inference against CPU clock, with the minimum below the maximum clock</title>
<desc id="d-energy">Energy per inference against CPU clock, with the minimum below the maximum clock</desc>
<g font-family="ui-monospace, JetBrains Mono Variable, monospace" font-size="11">
<line x1="62" y1="354" x2="698" y2="354" stroke="var(--hairline)" stroke-width="1"/>
<line x1="62" y1="30" x2="62" y2="354" stroke="var(--hairline)" stroke-width="1"/>
<text x="380.0" y="392" fill="var(--fg-faint)" text-anchor="middle" letter-spacing="0.08em">CPU CLOCK (MHz)</text>
<text transform="translate(14,192.0) rotate(-90)" fill="var(--fg-faint)" text-anchor="middle" letter-spacing="0.08em">ENERGY PER INFERENCE (mJ)</text>
<line x1="62" y1="354.0" x2="698" y2="354.0" stroke="var(--hairline)" stroke-dasharray="2 4"/>
<text x="54" y="357.5" fill="var(--fg-faint)" text-anchor="end">80</text>
<line x1="62" y1="273.0" x2="698" y2="273.0" stroke="var(--hairline)" stroke-dasharray="2 4"/>
<text x="54" y="276.5" fill="var(--fg-faint)" text-anchor="end">86</text>
<line x1="62" y1="192.0" x2="698" y2="192.0" stroke="var(--hairline)" stroke-dasharray="2 4"/>
<text x="54" y="195.5" fill="var(--fg-faint)" text-anchor="end">92</text>
<line x1="62" y1="111.0" x2="698" y2="111.0" stroke="var(--hairline)" stroke-dasharray="2 4"/>
<text x="54" y="114.5" fill="var(--fg-faint)" text-anchor="end">98</text>
<line x1="62" y1="30.0" x2="698" y2="30.0" stroke="var(--hairline)" stroke-dasharray="2 4"/>
<text x="54" y="33.5" fill="var(--fg-faint)" text-anchor="end">103</text>
<line x1="119.8" y1="354" x2="119.8" y2="358" stroke="var(--hairline)"/>
<text x="119.8" y="372" fill="var(--fg-faint)" text-anchor="middle">1500</text>
<line x1="293.3" y1="354" x2="293.3" y2="358" stroke="var(--hairline)"/>
<text x="293.3" y="372" fill="var(--fg-faint)" text-anchor="middle">1800</text>
<line x1="466.7" y1="354" x2="466.7" y2="358" stroke="var(--hairline)"/>
<text x="466.7" y="372" fill="var(--fg-faint)" text-anchor="middle">2100</text>
<line x1="640.2" y1="354" x2="640.2" y2="358" stroke="var(--hairline)"/>
<text x="640.2" y="372" fill="var(--fg-faint)" text-anchor="middle">2400</text>
<polyline points="119.8,246.9 293.3,284.3 466.7,192.4 640.2,84.4" fill="none" stroke="var(--accent)" stroke-width="1.75"/>
<circle cx="119.8" cy="246.9" r="4" fill="var(--fg)"/>
<circle cx="293.3" cy="284.3" r="5.5" fill="var(--accent)"/>
<circle cx="466.7" cy="192.4" r="4" fill="var(--fg)"/>
<circle cx="640.2" cy="84.4" r="4" fill="var(--fg)"/>
<text x="293.3" y="304.3" fill="var(--accent)" text-anchor="middle">cheapest</text>
<text x="634.2" y="74.4" fill="var(--fg-muted)" text-anchor="end">flat out</text>
</g>
</svg>
